<svg xmlns="http://www.w3.org/2000/svg" xmlns:xlink="http://www.w3.org/1999/xlink" id="Capa_1" x="0px" y="0px" viewBox="0 0 316.7 100.7" style="enable-background:new 0 0 316.7 100.7;" xml:space="preserve"><style type="text/css"></style><polygon class="st0" points="46,79 52.9,79 52.9,80.4 47.6,80.4 47.6,82.9 52.3,82.9 52.3,84.4 47.6,84.4 47.6,86.9 53,86.9  53,88.4 46,88.4 "></polygon><g>	<path class="st0" d="M58.4,87l1-1.2c0.9,0.8,1.8,1.2,3,1.2c1,0,1.7-0.5,1.7-1.2v0c0-0.7-0.4-1-2.1-1.4c-2-0.5-3.1-1.1-3.1-2.8v0  c0-1.6,1.3-2.7,3.2-2.7c1.4,0,2.5,0.4,3.4,1.2l-0.9,1.2c-0.8-0.6-1.7-1-2.5-1c-1,0-1.5,0.5-1.5,1.1v0c0,0.7,0.4,1,2.2,1.5  c2,0.5,3,1.2,3,2.7v0c0,1.8-1.4,2.8-3.4,2.8C60.8,88.5,59.5,88,58.4,87"></path></g><polygon class="st0" points="73.9,80.5 70.9,80.5 70.9,79 78.5,79 78.5,80.5 75.6,80.5 75.6,88.4 73.9,88.4 "></polygon><path class="st0" d="M90,84.6l-1.6-3.8l-1.6,3.8H90z M87.6,78.9h1.5l4.1,9.4h-1.7l-1-2.3h-4.4l-1,2.3h-1.7L87.6,78.9z"></path><g>	<path class="st0" d="M103.3,86.9c1.1,0,1.8-0.4,1.8-1.3v0c0-0.8-0.6-1.3-1.9-1.3h-2.6v2.6H103.3z M102.8,82.9  c1.1,0,1.8-0.4,1.8-1.3v0c0-0.7-0.6-1.2-1.6-1.2h-2.4v2.5H102.8z M98.9,79h4.2c1.1,0,1.9,0.3,2.5,0.8c0.4,0.4,0.6,0.9,0.6,1.6v0  c0,1.1-0.6,1.7-1.3,2.1c1.1,0.4,1.9,1,1.9,2.3v0c0,1.7-1.4,2.6-3.5,2.6h-4.3V79z"></path></g><polygon class="st0" points="112.6,79 114.3,79 114.3,86.9 119.2,86.9 119.2,88.4 112.6,88.4 "></polygon><rect x="125" y="79" class="st0" width="1.6" height="9.4"></rect><g>	<path class="st0" d="M132.6,87l1-1.2c0.9,0.8,1.8,1.2,3,1.2c1,0,1.7-0.5,1.7-1.2v0c0-0.7-0.4-1-2.1-1.4c-2-0.5-3.1-1.1-3.1-2.8v0  c0-1.6,1.3-2.7,3.2-2.7c1.4,0,2.5,0.4,3.4,1.2l-0.9,1.2c-0.8-0.6-1.7-1-2.5-1c-1,0-1.5,0.5-1.5,1.1v0c0,0.7,0.4,1,2.2,1.5  c2,0.5,3,1.2,3,2.7v0c0,1.8-1.4,2.8-3.4,2.8C135.1,88.5,133.7,88,132.6,87"></path></g><polygon class="st0" points="145.8,79 147.5,79 147.5,82.9 151.9,82.9 151.9,79 153.6,79 153.6,88.4 151.9,88.4 151.9,84.4  147.5,84.4 147.5,88.4 145.8,88.4 "></polygon><polygon class="st0" points="160,79 167,79 167,80.4 161.7,80.4 161.7,82.9 166.4,82.9 166.4,84.4 161.7,84.4 161.7,86.9 167,86.9  167,88.4 160,88.4 "></polygon><g>	<path class="st0" d="M176.5,86.9c2,0,3.3-1.3,3.3-3.2v0c0-1.8-1.3-3.2-3.3-3.2h-1.9v6.4H176.5z M173,79h3.5c2.9,0,5,2,5,4.7v0  c0,2.6-2,4.7-5,4.7H173V79z"></path></g><rect x="195.7" y="79" class="st0" width="1.6" height="9.4"></rect><polygon class="st0" points="203.8,79 205.4,79 210.4,85.5 210.4,79 212,79 212,88.4 210.6,88.4 205.5,81.7 205.5,88.4 203.8,88.4  "></polygon><polygon class="st0" points="227.7,80.6 226,81.1 225.6,79.7 228.2,78.9 229.3,78.9 229.3,88.4 227.7,88.4 "></polygon><path class="st0" d="M240.5,81.6L240.5,81.6c0-0.8-0.7-1.3-1.7-1.3c-1,0-1.7,0.6-1.7,1.3v0c0,0.8,0.7,1.4,1.7,1.4 C239.8,82.9,240.5,82.4,240.5,81.6 M240.8,85.7L240.8,85.7c0-0.9-0.9-1.4-2-1.4c-1.1,0-2,0.6-2,1.4v0c0,0.8,0.7,1.4,2,1.4 S240.8,86.5,240.8,85.7 M235.3,85.8L235.3,85.8c0-1.2,0.6-1.9,1.7-2.3c-0.8-0.4-1.4-1-1.4-2.1v0c0-1.4,1.4-2.5,3.3-2.5 c1.9,0,3.3,1.1,3.3,2.5v0c0,1-0.6,1.7-1.4,2.1c1,0.5,1.7,1.1,1.7,2.3v0c0,1.7-1.5,2.7-3.6,2.7C236.8,88.5,235.3,87.4,235.3,85.8"></path><path class="st0" d="M253,81.6L253,81.6c0-0.8-0.7-1.3-1.7-1.3c-1,0-1.7,0.6-1.7,1.3v0c0,0.8,0.7,1.4,1.7,1.4 C252.3,82.9,253,82.4,253,81.6 M253.3,85.7L253.3,85.7c0-0.9-0.9-1.4-2-1.4c-1.1,0-2,0.6-2,1.4v0c0,0.8,0.7,1.4,2,1.4 S253.3,86.5,253.3,85.7 M247.7,85.8L247.7,85.8c0-1.2,0.6-1.9,1.7-2.3c-0.8-0.4-1.4-1-1.4-2.1v0c0-1.4,1.4-2.5,3.3-2.5 c1.9,0,3.3,1.1,3.3,2.5v0c0,1-0.6,1.7-1.4,2.1c1,0.5,1.7,1.1,1.7,2.3v0c0,1.7-1.5,2.7-3.6,2.7C249.3,88.5,247.7,87.4,247.7,85.8"></path><path class="st0" d="M260.2,87.1l1-1.2c0.8,0.7,1.5,1.1,2.4,1.1c1.1,0,1.9-0.6,1.9-1.6v0c0-1-0.8-1.6-1.9-1.6 c-0.7,0-1.2,0.2-1.7,0.4l-1-0.7l0.3-4.6h5.6v1.5h-4.2l-0.1,2.2c0.4-0.2,0.9-0.3,1.5-0.3c1.8,0,3.3,1,3.3,2.9v0 c0,1.9-1.4,3.2-3.5,3.2C262.2,88.5,261.1,87.9,260.2,87.1"></path><path class="st0" d="M49.1,12.3v21.8c0,12.8,0,13.9-1.7,14.1l-0.2,0v1.1h8.2v-1.1l-0.2,0c-1.7-0.1-1.7-1.3-1.7-13.9 c0,0,0-10.2,0-11.5c2,2.6,22.3,26.9,22.3,26.9h1V27c0-11.8,0-13.1,1.5-13.2l0.2,0v-1.1l-8.1,0l0,1.1l0.2,0c1.7,0.1,1.8,1.2,1.8,13.1 c0,0,0,11,0,12.5c-1.9-2.4-22.3-27.1-22.3-27.1H49.1z"></path><path class="st0" d="M93.5,16.9c3.6,0,6.9,0.9,9,2.5c3.3,2.4,5.1,6.5,5.1,11.1c0,4.9-1.6,8.8-4.7,11.5c-2.4,2.1-5.7,3.2-9.6,3.2 c-1.3,0-2.4-0.1-3.1-0.2C90,45,90,45,90,44.6V17.1C90.4,17.1,93.5,16.9,93.5,16.9 M83.2,13.7l0.2,0c1.6,0.1,1.8,1.5,1.8,13.3v7.2 c0,12.6,0,13.8-1.8,13.9l-0.2,0v1.1l1.6,0l3,0l2.2,0.1l2.9,0c5.6,0,10-1.3,13.3-4.1c4.3-3.6,6.6-8.8,6.6-15.2 c0-6.3-2.7-11.8-7.4-14.7c-3.3-2-6.9-2.9-11.9-2.9l-9.9,0h-0.3V13.7z"></path><path class="st0" d="M138.6,12.6v1.1l0.2,0c1.7,0.1,1.7,1.2,1.7,13.1v7c0,4-0.7,6.7-2.3,8.6c-1.5,1.8-3.8,2.9-6.6,2.9 c-2.8,0-5.4-1.1-6.7-3c-1.5-2-2.2-4.5-2.2-8.3v-7c0-11.8,0.1-13.1,1.7-13.2l0.3,0v-1.1h-8.6v1.1l0.2,0c1.6,0.1,1.6,1.2,1.6,13.1v7.4 c0,4.9,0.9,8.1,2.8,10.6c2.3,3.3,6,5,10.8,5c4.1,0,7.9-1.7,10.2-4.6c2.3-2.7,3.3-6.2,3.3-11.5v-6.8v-2.6c0-6.8,0-9.6,0.7-10.4 c0.2-0.2,0.5-0.3,0.9-0.3h0.2v-1.1H138.6z"></path><path class="st0" d="M34.9,12.6v1.1l0.2,0c1.7,0.1,1.8,1.2,1.8,13.1v6.9c0,4-0.7,6.7-2.3,8.6c-1.5,1.8-3.8,2.9-6.6,2.9 c-2.8,0-5.3-1.1-6.7-3c-1.5-2-2.2-4.5-2.2-8.3v-7c0-11.8,0.1-13.1,1.7-13.2l0.2,0v-1.1h-8.6v1.1l0.2,0c1.6,0.1,1.6,1.2,1.6,13.1v7.4 c0,4.9,0.9,8.1,2.9,10.6c2.3,3.3,6,5,10.8,5c4.1,0,7.9-1.7,10.2-4.6c2.3-2.7,3.3-6.2,3.3-11.5v-6.8c0-11.8,0-13.1,1.5-13.2l0.2,0 v-1.1H34.9z"></path><path class="st0" d="M266.8,48.1c-0.3-0.1-1-0.2-1-1.2V31.1h-12.2v4.6h0.3c7.4,0,7.4,0,7.4,4.8c-1.8,2-4.5,4.3-9.3,4.3 c-3,0-6.3-1.7-8.8-4.2c-1.8-1.9-4-5.2-3.8-10c0.2-4.4,1.7-7.9,4.3-10.4c2.7-2.4,6.4-3.6,10.8-3.3c6.1,0.4,8.3,2.8,8.3,4.9l0,0.3l1,0 l1-3.5l0.7-2.6l-0.1-0.1c-2.7-2.2-6.1-3.4-10.6-3.7c-5.7-0.4-11,1.3-14.7,4.7c-3.6,3.3-5.7,8-5.9,13.5c-0.2,5.3,1.6,10.1,5.1,13.8 c3.4,3.5,8.2,5.6,12.8,5.6c5.1,0,7.6-1.5,9.1-2.8c0,0.7,0,2.4,0,2.4h6.5v-1.1c0,0-0.2,0-0.4,0C267.2,48.2,266.8,48.1,266.8,48.1"></path><path class="st0" d="M217.7,60.1c-6.1,5.4-8.4,5.9-14.7,4.8c-6-1-24.7-13.1-33.1-24.8c-1.1-1.4-3.9-5.8-4.7-6.9 c0.6-0.2,2.1-0.9,3.2-1.8c1.7-1.3,3.9-3.7,3.9-8.4c0-5.2-3.2-8.2-6.1-9.3c-1.9-0.7-3.8-1-6.5-1l-5,0l-3.6,0l0,1.1l0.2,0 c1.9,0.1,1.9,1.4,1.9,13.2v7.4c0,12.8-0.1,13.8-1.8,13.9l-0.2,0v1.1h8.4v-1.1l-0.2,0c-1.4-0.1-1.5-1-1.5-10.5v-3.5 c0.3,0,1.8,0.1,2.1,0.1c0.2,0.5,1.1,2.2,4.4,6.9C177.2,58,193,63.7,196,65c3.2,1.4,7.4,2,10.6,2c1.8,0,4-0.3,6.2-1.5 C215.4,64.2,217.7,60.1,217.7,60.1 M160.4,16.8c4.5,0,7.1,2.4,7.1,6.4c0,3.8-2.4,5.5-3.4,6c-1.2,0.7-2.7,1.1-4.4,1.1 c0,0-1.2,0-1.5-0.1V16.9C158.6,16.9,160.4,16.8,160.4,16.8"></path><path class="st0" d="M219,34.4c-1.7,0.1-3.4-0.3-4.8-0.7l0.6-1.5h0c1.2-3.1,3.7-9.5,4-10.4c0.2,0.5,2.2,5.2,2.6,6.4 c0.2,0.7,0.9,2.3,1.4,3.6c0,0.1,0.3,0.8,0.7,1.8C222.3,33.9,220.7,34.3,219,34.4 M235.8,48.2c-1.3-0.1-2.2-1.5-7.1-13.9 c0,0-0.5-1.3-0.7-1.9l0,0l-0.1-0.1c0-0.1-0.1-0.2-0.1-0.2v0l-2.1-4.8l-6.2-14.7l-1.1,0c0,0-7.8,18.5-8.7,20.6 c-0.5,1.1-1.6,3.7-2.4,5.7c-0.4,0.9-1.7,3.7-1.9,4.1c-0.1,0.3-0.2,0.5-0.4,0.7c0.6,0.5,1.4,1,2.3,1.5c0.6,0.3,1.3,0.6,2.1,0.8 c0.1-0.4,0.3-0.9,0.5-1.5c0.4-1.2,1-2.7,1.8-4.6l0.9-2.4c1.6,0.4,3.9,0.9,6,0.8c2.1-0.1,4.6-0.6,6.1-0.9c0.5,1.4,0.9,2.5,0.9,2.5 c1.6,4.1,2.5,6.4,2.5,7.6c0,0.2,0,0.4-0.1,0.5c-0.1,0.1-0.2,0.2-0.6,0.3l-0.2,0v1.1h8.7v-1.1L235.8,48.2z"></path><path class="st0" d="M287.3,34.4c-1.7,0.1-3.5-0.3-4.9-0.8c0.6-1.6,4.1-10.8,4.5-11.9c0.2,0.5,2.2,5.2,2.6,6.4c0.4,1,1.6,4,2.1,5.2 h0c0,0,0,0.1,0.1,0.2C290.5,34,288.9,34.3,287.3,34.4 M304,48.2c-1.3-0.1-2.2-1.5-7.1-13.9c0,0-2.9-7-2.9-7l-6.2-14.7l-1.1,0 c0,0-7.8,18.5-8.7,20.6c-0.5,1.1-1.5,3.7-2.5,5.7c-0.4,0.9-1.7,3.7-1.9,4.1c-2.9,6.1-3.9,5.2-4.6,5.3l-0.2,0v1.1h3.7v0h5.9l0-1.1 l-0.1,0l-0.3-0.1c-0.4-0.1-0.5-0.2-0.6-0.3c-0.1-0.1-0.1-0.3-0.1-0.5c0-0.1,0-0.2,0-0.4c0.1-0.6,0.3-1.4,0.7-2.5 c0.4-1.2,1-2.7,1.8-4.6v0l0.9-2.4c1.6,0.4,4,0.9,6.1,0.8c2.1-0.1,4.5-0.5,6-0.9c0.5,1.3,0.9,2.5,0.9,2.5c1.6,4.1,2.5,6.4,2.5,7.6 c0,0.2-0.1,0.4-0.1,0.5c-0.1,0.1-0.2,0.2-0.6,0.3l-0.2,0v1.1h8.7v-1.1L304,48.2z"></path><path class="st0" d="M193.1,29.8c-1.2,0.7-2.8,1.1-4.4,1.1c0,0-1.2,0-1.5-0.1V17.5c0.4,0,2.2-0.1,2.2-0.1c4.5,0,7.1,2.4,7.1,6.4 C196.4,27.5,194.1,29.3,193.1,29.8 M215.2,48.8c0,0-4.4-0.2-7.3-0.9c-3.1-0.7-7.6-5.5-8.9-7.2c-1.1-1.4-3.9-5.8-4.7-6.9 c0.6-0.3,2.1-0.9,3.2-1.8c1.7-1.3,3.9-3.7,3.9-8.4c0-5.2-3.2-8.2-6.1-9.3c-1.9-0.7-3.8-1-6.5-1l-5,0l-3.6,0v1.1l0.2,0 c1.9,0.1,1.9,1.4,1.9,13.2v7.3c0,7.6-0.1,11.1-0.4,12.7c-0.1,1-0.2,1-0.2,1.5c-0.1,0.2-0.1,0.6-0.1,0.9h7.3v-1.1l-0.2,0 c-1.4-0.1-1.5-1-1.5-10.5v-3.5c0.3,0,1.8,0.1,2.1,0.1c0.2,0.5,1.1,2.2,4.4,6.9c3.8,5.4,8.3,8.1,13.7,8.1h1.8h3.9h2.1V48.8z"></path></svg>